<?xml version="1.0"?>
<svg xmlns="http://www.w3.org/2000/svg" viewBox="0 0 512 512" width="512" height="512"><g id="Out_line" data-name="Out line"><path d="M456,16H120A40.04552,40.04552,0,0,0,80,56V224H96V56a24.02718,24.02718,0,0,1,24-24H456a24.02718,24.02718,0,0,1,24,24V248H464V64a16.01833,16.01833,0,0,0-16-16H128a16.01833,16.01833,0,0,0-16,16V232h16V64H448V248H152v16H480v8a24.02718,24.02718,0,0,1-24,24H200v16h48v24a24.119,24.119,0,0,1-.75488,6.00586l15.49414,3.98828A40.08917,40.08917,0,0,0,264,336V312h48v24a39.79847,39.79847,0,0,0,8.01855,24H264v16h88a8,8,0,0,0,0-16,24.02718,24.02718,0,0,1-24-24V312H456a40.04552,40.04552,0,0,0,40-40V56A40.04552,40.04552,0,0,0,456,16Z"/><circle cx="288" cy="280" r="8"/><circle cx="144" cy="80" r="8"/><circle cx="168" cy="80" r="8"/><circle cx="192" cy="80" r="8"/><rect x="144" y="96" width="288" height="16"/><path d="M260.24023,129.21582A8.00044,8.00044,0,0,0,248,136v88a7.99975,7.99975,0,0,0,12.7998,6.3999l64-48a7.99963,7.99963,0,0,0-.55957-13.18408ZM264,208V150.43408l41.86621,26.16651Z"/><path d="M243.77734,373.665l-3.87329-7.74585A24.02831,24.02831,0,0,0,216,344H197.12354l1.2124-13.33154A24.439,24.439,0,0,0,175.97217,304.09c-.00733-.194-.00586-.39222-.01807-.58509a24.02344,24.02344,0,0,0-29.52344-21.85547,24.10419,24.10419,0,0,0-10.46972-7.28466Q135.999,273.68359,136,273a23.98645,23.98645,0,0,0-30.69434-23.043,23.99935,23.99935,0,0,0-45.01855,7.32959A23.995,23.995,0,0,0,40.39648,285.3374,25.056,25.056,0,0,0,32,304v2.15588a24.42032,24.42032,0,0,0-14.33594,24.51258L32.0332,488.72412A7.99937,7.99937,0,0,0,40,496H224a24.02718,24.02718,0,0,0,24-24V391.5542A40.20335,40.20335,0,0,0,243.77734,373.665ZM224,368a8.00917,8.00917,0,0,1-8,8H176a8,8,0,0,1,0-16h40A8.00917,8.00917,0,0,1,224,368Zm-41.59766-38.78027L181.05811,344H176a23.85067,23.85067,0,0,0-11.4939,2.9375l.93531-17.15039c.03271-.6.03515-1.19885.02319-1.79663l.07446.00415A8.45714,8.45714,0,0,1,173.98145,320a8.45458,8.45458,0,0,1,8.42089,9.21973ZM66.53516,328.915A8.45474,8.45474,0,0,1,75.042,320a8.49616,8.49616,0,0,1,8.45313,8.30127l.01465-.00024c-.00123.19946-.00757.39819-.00391.59838L86.25317,480H74.77588Zm32.96875-.30713a8.49719,8.49719,0,1,1,16.99218.00049L113.74341,480H102.25659Zm32.98632-.30688.01465.00024A8.51041,8.51041,0,0,1,141.02344,320a8.45438,8.45438,0,0,1,8.4414,8.91553l-2.60913,47.8457A40.21549,40.21549,0,0,0,144,391.5542V472a23.88238,23.88238,0,0,0,1.37622,8H129.74683l2.74731-151.1001C132.4978,328.69946,132.49146,328.50073,132.49023,328.301Zm-79.24316-32.4646a7.99882,7.99882,0,0,0,3.70508-11.04395A8.00058,8.00058,0,0,1,66.35059,273.354a7.99931,7.99931,0,0,0,10.00293-10.0039A7.99977,7.99977,0,1,1,92,261c0,.21875-.01367.458-.042.75293a8,8,0,0,0,13.999,6.02686A7.91345,7.91345,0,0,1,112,265a8.00917,8.00917,0,0,1,8,8,7.89164,7.89164,0,0,1-1.14258,4.08594,8.00038,8.00038,0,0,0,8.03223,12.00976A7.78262,7.78262,0,0,1,128,289a8.01382,8.01382,0,0,1,7.542,5.3623,8.00086,8.00086,0,0,0,12.01563,3.98389A7.92065,7.92065,0,0,1,152,297a8.009,8.009,0,0,1,7.98535,7.49609c.00977.16651.01465.33252.01465.50391v3.397a24.54779,24.54779,0,0,0-2.49829,2.00074A24.61425,24.61425,0,0,0,140.958,304a24.35,24.35,0,0,0-16.41944,6.40222,24.56294,24.56294,0,0,0-33.082.00427,24.41033,24.41033,0,0,0-32.95849-.00891A24.4195,24.4195,0,0,0,48,304.74048V304A9.02368,9.02368,0,0,1,53.24707,295.83643ZM33.59766,329.22021A8.45533,8.45533,0,0,1,42.01855,320a8.45714,8.45714,0,0,1,8.44239,7.99463l.07446-.00415c-.012.59765-.00952,1.19629.02319,1.79614L58.752,480H47.30566ZM232,472a8.00917,8.00917,0,0,1-8,8H168a8.00917,8.00917,0,0,1-8-8V391.5542a24.00276,24.00276,0,0,1,.57739-5.18457A23.88864,23.88864,0,0,0,176,392h40a23.88864,23.88864,0,0,0,15.42261-5.63037A24.0036,24.0036,0,0,1,232,391.5542Z"/></g></svg>
